<?xml version="1.0" standalone="no"?>
<!DOCTYPE svg PUBLIC "-//W3C//DTD SVG 20010904//EN"
 "http://www.w3.org/TR/2001/REC-SVG-20010904/DTD/svg10.dtd">
<svg version="1.0" xmlns="http://www.w3.org/2000/svg"
 width="512.000000pt" height="512.000000pt" viewBox="0 0 512.000000 512.000000"
 preserveAspectRatio="xMidYMid meet">
<metadata>
Created by potrace 1.14, written by Peter Selinger 2001-2017
</metadata>
<g transform="translate(0.000000,512.000000) scale(0.100000,-0.100000)"
fill="#000000" stroke="none">
<path d="M2220 4985 c-25 -7 -70 -26 -100 -43 -30 -18 -62 -32 -70 -32 -8 0
-27 -6 -42 -14 -67 -35 -142 -56 -201 -56 -77 0 -224 -48 -279 -92 -20 -16
-65 -39 -100 -50 -71 -24 -172 -84 -221 -132 -18 -17 -52 -38 -76 -46 -28 -9
-69 -38 -113 -80 -110 -103 -181 -179 -201 -214 -10 -17 -37 -44 -60 -58 -78
-50 -206 -194 -242 -272 -13 -28 -33 -85 -45 -126 -54 -185 -80 -250 -110
-285 -25 -29 -118 -274 -135 -355 -4 -19 -15 -51 -25 -70 -43 -88 -51 -203
-37 -570 7 -178 9 -199 32 -245 19 -40 26 -77 35 -180 5 -71 7 -143 4 -160 -6
-34 56 -237 81 -265 16 -19 42 -79 62 -145 8 -27 32 -72 53 -100 21 -27 54
-75 73 -105 19 -30 43 -62 54 -71 10 -9 36 -40 58 -69 22 -30 52 -65 68 -79
78 -73 101 -98 124 -135 14 -23 73 -88 131 -145 86 -85 118 -110 179 -137 40
-19 76 -40 79 -48 3 -8 52 -49 109 -91 57 -42 109 -83 115 -90 17 -20 91 -57
122 -61 15 -2 53 -13 85 -25 32 -11 74 -24 93 -29 19 -4 62 -17 95 -29 32 -11
70 -21 83 -21 13 0 58 -12 100 -26 42 -15 101 -30 132 -35 30 -4 80 -15 110
-24 121 -37 237 -54 297 -45 32 6 110 10 173 10 103 0 123 3 195 30 55 21 119
35 205 45 246 29 269 34 325 65 30 16 61 30 70 30 21 0 111 46 155 79 19 14
51 35 70 45 19 11 61 41 92 67 32 27 95 66 141 88 70 34 91 50 136 106 30 37
72 75 93 86 36 18 130 90 166 125 7 8 22 19 32 24 21 11 59 76 102 175 17 39
54 97 83 130 73 85 115 145 115 166 0 29 40 140 65 179 12 19 25 48 29 65 4
16 18 52 32 81 13 28 24 59 24 68 0 10 11 61 24 114 13 53 31 127 39 163 9 37
25 86 36 110 31 68 55 204 42 237 -7 17 -10 89 -8 192 3 173 2 178 -57 389 -9
30 -20 89 -26 130 -14 117 -37 179 -96 267 -31 46 -54 92 -54 106 0 32 -56
183 -81 219 -10 14 -30 57 -44 95 -16 43 -40 84 -65 109 -21 22 -45 57 -54 77
-21 52 -265 318 -325 355 -15 9 -66 60 -114 113 -100 110 -146 140 -257 165
-41 9 -82 20 -90 24 -46 23 -304 172 -316 182 -6 5 -43 13 -81 18 -39 5 -79
14 -91 20 -11 6 -37 11 -56 11 -34 0 -127 27 -191 55 -51 22 -193 39 -221 26
-37 -16 -117 -14 -248 9 -130 22 -219 24 -286 5z"/>
</g>
</svg>
